<svg xmlns="http://www.w3.org/2000/svg" xmlns:xlink="http://www.w3.org/1999/xlink" width="1008" height="399" viewBox="0 0 1008 399">
  <defs>
    <style>
      .cls-1 {
        clip-path: url(#clip-swot);
      }

      .cls-15, .cls-2 {
        fill: none;
      }

      .cls-2, .cls-8 {
        stroke: #fff;
      }

      .cls-2 {
        stroke-linecap: round;
      }

      .cls-11, .cls-2, .cls-8 {
        stroke-width: 2px;
      }

      .cls-3, .cls-8 {
        fill: #558bf9;
      }

      .cls-10, .cls-11, .cls-4, .cls-6, .cls-7, .cls-9 {
        fill: #fff;
      }

      .cls-5 {
        fill: #246eff;
      }

      .cls-6 {
        font-size: 45px;
      }

      .cls-12, .cls-6, .cls-7, .cls-9 {
        font-family: Merriweather-Bold, Merriweather;
        font-weight: 700;
      }

      .cls-7 {
        font-size: 22px;
      }

      .cls-12, .cls-7, .cls-9 {
        text-decoration: underline;
      }

      .cls-12, .cls-9 {
        font-size: 18px;
      }

      .cls-10, .cls-13 {
        font-size: 14px;
        font-family: Poppins-Regular, Poppins;
      }

      .cls-11 {
        stroke: #558bf9;
      }

      .cls-14 {
        stroke: none;
      }
    </style>
    <clipPath id="clip-swot">
      <rect width="1008" height="399"/>
    </clipPath>
  </defs>
  <g id="swot" class="cls-1">
    <g id="Group_778" data-name="Group 778" transform="translate(-136 -5402)">
      <g id="Group_541" data-name="Group 541" transform="translate(3795.145 20799.793)">
        <path id="Path_299" data-name="Path 299" class="cls-2" d="M-3436.956-15589.06c.6,47.771,32.952,80.132,68.586,81.264s69.229-31.037,71.559-75.806" transform="translate(418.811 275.06)"/>
        <path id="Path_298" data-name="Path 298" class="cls-2" d="M-3436.956-15589.06c.6,47.771,32.952,80.132,68.586,81.264s69.229-31.037,71.559-75.806" transform="translate(138.811 275.267)"/>
        <path id="Path_297" data-name="Path 297" class="cls-2" d="M-3436.956-15507.767c.6-47.771,32.952-80.132,68.586-81.264s69.229,31.037,71.559,75.806" transform="translate(278.956 191.767)"/>
        <ellipse id="Ellipse_27" data-name="Ellipse 27" class="cls-3" cx="62" cy="71.5" rx="62" ry="71.5" transform="translate(-3430 -15386)"/>
        <path id="Path_300" data-name="Path 300" class="cls-3" d="M62,0c34.242,0,62,32.012,62,71.5S96.242,143,62,143,0,110.988,0,71.5,27.758,0,62,0Z" transform="translate(-3290 -15386)"/>
        <path id="Path_301" data-name="Path 301" class="cls-3" d="M62,0c34.242,0,62,32.012,62,71.5S96.242,143,62,143,0,110.988,0,71.5,27.758,0,62,0Z" transform="translate(-3150 -15388)"/>
        <ellipse id="Ellipse_30" data-name="Ellipse 30" class="cls-3" cx="62" cy="71.5" rx="62" ry="71.5" transform="translate(-3010 -15386)"/>
        <g id="Group_537" data-name="Group 537">
          <ellipse id="Ellipse_31" data-name="Ellipse 31" class="cls-4" cx="6" cy="6.5" rx="6" ry="6.5" transform="translate(-3304 -15322)"/>
          <ellipse id="Ellipse_32" data-name="Ellipse 32" class="cls-5" cx="3" cy="3.5" rx="3" ry="3.5" transform="translate(-3301 -15319)"/>
        </g>
        <g id="Group_538" data-name="Group 538" transform="translate(140 1)">
          <ellipse id="Ellipse_31-2" data-name="Ellipse 31" class="cls-4" cx="6" cy="6.5" rx="6" ry="6.5" transform="translate(-3304 -15322)"/>
          <ellipse id="Ellipse_32-2" data-name="Ellipse 32" class="cls-5" cx="3" cy="3.5" rx="3" ry="3.5" transform="translate(-3301 -15319)"/>
        </g>
        <g id="Group_539" data-name="Group 539" transform="translate(280 1)">
          <ellipse id="Ellipse_31-3" data-name="Ellipse 31" class="cls-4" cx="6" cy="6.5" rx="6" ry="6.5" transform="translate(-3304 -15322)"/>
          <ellipse id="Ellipse_32-3" data-name="Ellipse 32" class="cls-5" cx="3" cy="3.5" rx="3" ry="3.5" transform="translate(-3301 -15319)"/>
        </g>
        <g id="Group_540" data-name="Group 540" transform="translate(420 1)">
          <ellipse id="Ellipse_31-4" data-name="Ellipse 31" class="cls-4" cx="6" cy="6.5" rx="6" ry="6.5" transform="translate(-3304 -15322)"/>
          <ellipse id="Ellipse_32-4" data-name="Ellipse 32" class="cls-5" cx="3" cy="3.5" rx="3" ry="3.5" transform="translate(-3301 -15319)"/>
        </g>
        <path id="Path_296" data-name="Path 296" class="cls-2" d="M-3436.956-15507.767c.6-47.771,32.952-80.132,68.586-81.264s69.229,31.037,71.559,75.806" transform="translate(-1.189 191.267)"/>
        <text id="S" class="cls-6" transform="translate(-3381 -15302)"><tspan x="0" y="0">S</tspan></text>
        <text id="W" class="cls-6" transform="translate(-3251 -15302)"><tspan x="0" y="0">W</tspan></text>
        <text id="O" class="cls-6" transform="translate(-3104 -15302)"><tspan x="0" y="0">O</tspan></text>
        <text id="T" class="cls-6" transform="translate(-2964 -15302)"><tspan x="0" y="0">T</tspan></text>
      </g>
      <text id="Apple_-_Competitor_Overview" data-name="Apple - Competitor Overview" class="cls-7" transform="translate(476 5581)"><tspan x="0" y="22">Apple - Competitor Overview</tspan></text>
      <g id="Group_555" data-name="Group 555" transform="translate(0 -343)">
        <g id="Group_554" data-name="Group 554">
          <g id="Rectangle_1821" data-name="Rectangle 1821" class="cls-8" transform="translate(904 5976)">
            <rect class="cls-14" width="240" height="168" rx="10"/>
            <rect class="cls-15" x="1" y="1" width="238" height="166" rx="9"/>
          </g>
          <text id="THREATS" class="cls-9" transform="translate(979 5996)"><tspan x="0" y="18">THREATS</tspan></text>
          <g id="Group_547" data-name="Group 547" transform="translate(910 6030)">
            <text id="_Brand_strength_Customer_loyalty" data-name="        Brand strength
        Customer loyalty" class="cls-10"><tspan x="0" y="15" xml:space="preserve">        Brand strength</tspan><tspan x="0" y="39" xml:space="preserve">        Customer loyalty</tspan></text>
            <circle id="Ellipse_24" data-name="Ellipse 24" class="cls-4" cx="3" cy="3" r="3" transform="translate(15 7)"/>
            <circle id="Ellipse_33" data-name="Ellipse 33" class="cls-4" cx="3" cy="3" r="3" transform="translate(15 31)"/>
          </g>
        </g>
        <g id="Group_553" data-name="Group 553">
          <g id="Rectangle_1819" data-name="Rectangle 1819" class="cls-11" transform="translate(648 5976)">
            <rect class="cls-14" width="240" height="168" rx="10"/>
            <rect class="cls-15" x="1" y="1" width="238" height="166" rx="9"/>
          </g>
          <text id="OPPORTUNITIES" class="cls-12" transform="translate(690 5996)"><tspan x="0" y="18">OPPORTUNITIES</tspan></text>
          <g id="Group_548" data-name="Group 548" transform="translate(654 6030)">
            <text id="_Add_more_extensions_to_their_product_line._" data-name="        Add more extensions to 
        their product line. " class="cls-13"><tspan x="0" y="15" xml:space="preserve">        Add more extensions to </tspan><tspan x="0" y="31" xml:space="preserve">        their product line. </tspan></text>
            <circle id="Ellipse_24-2" data-name="Ellipse 24" cx="3" cy="3" r="3" transform="translate(15 7)"/>
            <circle id="Ellipse_34" data-name="Ellipse 34" cx="3" cy="3" r="3" transform="translate(15 47)"/>
          </g>
          <text id="Broaden_market_range_to_offer_affordable_price_ranges._" data-name="Broaden market range to offer affordable price ranges.  " class="cls-13" transform="translate(684 6069)"><tspan x="0" y="15">Broaden market range to </tspan><tspan x="0" y="31">offer affordable price </tspan><tspan x="0" y="47" xml:space="preserve">ranges.  </tspan></text>
        </g>
        <g id="Group_552" data-name="Group 552">
          <g id="Rectangle_1818" data-name="Rectangle 1818" class="cls-8" transform="translate(392 5976)">
            <rect class="cls-14" width="240" height="168" rx="10"/>
            <rect class="cls-15" x="1" y="1" width="238" height="166" rx="9"/>
          </g>
          <text id="WEAKNESSES" class="cls-9" transform="translate(449 5996)"><tspan x="0" y="18">WEAKNESSES</tspan></text>
          <g id="Group_546" data-name="Group 546" transform="translate(398 6030)">
            <text id="_Footer_overloaded_with_copy" data-name="        Footer overloaded with 
        copy" class="cls-10"><tspan x="0" y="15" xml:space="preserve">        Footer overloaded with </tspan><tspan x="0" y="31" xml:space="preserve">        copy</tspan></text>
            <circle id="Ellipse_24-3" data-name="Ellipse 24" class="cls-4" cx="3" cy="3" r="3" transform="translate(15 7)"/>
            <circle id="Ellipse_33-2" data-name="Ellipse 33" class="cls-4" cx="3" cy="3" r="3" transform="translate(15 47)"/>
          </g>
          <text id="Very_busy_homepage_from_the_get_go." data-name="Very busy homepage from the get go." class="cls-10" transform="translate(428 6070)"><tspan x="0" y="15">Very busy homepage from </tspan><tspan x="0" y="31">the get go.</tspan></text>
        </g>
        <g id="Group_551" data-name="Group 551">
          <g id="Rectangle_1817" data-name="Rectangle 1817" class="cls-11" transform="translate(136 5976)">
            <rect class="cls-14" width="240" height="168" rx="10"/>
            <rect class="cls-15" x="1" y="1" width="238" height="166" rx="9"/>
          </g>
          <text id="STRENGTHS" class="cls-12" transform="translate(197 5996)"><tspan x="0" y="18">STRENGTHS</tspan></text>
          <g id="Group_549" data-name="Group 549" transform="translate(142 6030)">
            <text id="_Simple_and_easy_to_navigate" data-name="        Simple and easy to 
        navigate" class="cls-13"><tspan x="0" y="15" xml:space="preserve">        Simple and easy to </tspan><tspan x="0" y="31" xml:space="preserve">        navigate</tspan></text>
            <circle id="Ellipse_24-4" data-name="Ellipse 24" cx="3" cy="3" r="3" transform="translate(15 7)"/>
            <circle id="Ellipse_33-3" data-name="Ellipse 33" cx="3" cy="3" r="3" transform="translate(15 47)"/>
            <circle id="Ellipse_34-2" data-name="Ellipse 34" cx="3" cy="3" r="3" transform="translate(15 71)"/>
          </g>
          <g id="Group_550" data-name="Group 550" transform="translate(142 6046)">
            <text id="_Clean_layout_Scannable_Homepage" data-name="
        Clean layout
        Scannable Homepage" class="cls-13"><tspan x="0" y="15"></tspan><tspan x="0" y="39" xml:space="preserve">        Clean layout</tspan><tspan x="0" y="63" xml:space="preserve">        Scannable Homepage</tspan></text>
          </g>
        </g>
      </g>
    </g>
  </g>
</svg>
