<svg xmlns="http://www.w3.org/2000/svg" xmlns:xlink="http://www.w3.org/1999/xlink" width="1032" height="361" viewBox="0 0 1032 361">
  <defs>
    <style>
      .cls-1 {
        clip-path: url(#clip-DoE-heuristic-annotations);
      }

      .cls-2 {
        fill: #fff;
      }

      .cls-3 {
        font-size: 28px;
        font-family: Oswald-Bold, Oswald;
      }

      .cls-3, .cls-7 {
        font-weight: 700;
      }

      .cls-4, .cls-7 {
        font-size: 16px;
      }

      .cls-4 {
        font-family: Nunito-Regular, Nunito;
      }

      .cls-5, .cls-6 {
        fill: #ce2600;
      }

      .cls-5 {
        stroke: #ce2600;
      }

      .cls-7 {
        fill: #f7f5f5;
        font-family: HelveticaNeue-Bold, Helvetica Neue;
      }

      .cls-10, .cls-8 {
        stroke: none;
      }

      .cls-9 {
        fill: none;
      }

      .cls-10 {
        fill: #ce2600;
      }

      .cls-11 {
        filter: url(#HEURISTIC_ANNOTATIONS);
      }

      .cls-12 {
        filter: url(#Rectangle_1785);
      }
    </style>
    <filter id="Rectangle_1785" x="-9" y="-6" width="1050" height="379" filterUnits="userSpaceOnUse">
      <feOffset dy="3" input="SourceAlpha"/>
      <feGaussianBlur stdDeviation="3" result="blur"/>
      <feFlood flood-opacity="0.161"/>
      <feComposite operator="in" in2="blur"/>
      <feComposite in="SourceGraphic"/>
    </filter>
    <filter id="HEURISTIC_ANNOTATIONS" x="363" y="18" width="306" height="59" filterUnits="userSpaceOnUse">
      <feOffset dy="3" input="SourceAlpha"/>
      <feGaussianBlur stdDeviation="3" result="blur-2"/>
      <feFlood flood-opacity="0.051"/>
      <feComposite operator="in" in2="blur-2"/>
      <feComposite in="SourceGraphic"/>
    </filter>
    <clipPath id="clip-DoE-heuristic-annotations">
      <rect width="1032" height="361"/>
    </clipPath>
  </defs>
  <g id="DoE-heuristic-annotations" class="cls-1">
    <g id="Group_422" data-name="Group 422" transform="translate(-6646 17866)">
      <g class="cls-12" transform="matrix(1, 0, 0, 1, 6646, -17866)">
        <rect id="Rectangle_1785-2" data-name="Rectangle 1785" class="cls-2" width="1032" height="361" rx="10"/>
      </g>
      <g class="cls-11" transform="matrix(1, 0, 0, 1, 6646, -17866)">
        <text id="HEURISTIC_ANNOTATIONS-2" data-name="HEURISTIC ANNOTATIONS" class="cls-3" transform="translate(372 24)"><tspan x="0" y="33">HEURISTIC ANNOTATIONS</tspan></text>
      </g>
      <g id="Group_434" data-name="Group 434" transform="translate(-34 60)">
        <text id="Consistent_color_scheme_throughout" data-name="Consistent color scheme 
throughout" class="cls-4" transform="translate(6757 -17779)"><tspan x="0" y="16">Consistent color scheme </tspan><tspan x="0" y="38">throughout</tspan></text>
        <g id="Component_1_157" data-name="Component 1 – 157" transform="translate(6720 -17776.635)">
          <g id="Group_1" data-name="Group 1" transform="translate(1419 286) rotate(180)">
            <g id="Ellipse_1" data-name="Ellipse 1" class="cls-5" transform="translate(1389 256)">
              <circle class="cls-8" cx="15" cy="15" r="15"/>
              <circle class="cls-9" cx="15" cy="15" r="14.5"/>
            </g>
            <g id="Polygon_1" data-name="Polygon 1" class="cls-6" transform="translate(1390 246)">
              <path class="cls-8" d="M 24.04203224182129 18.49999618530273 L 24.04202270507812 18.49999618530273 L 3.957981824874878 18.49999618530273 C 3.380241870880127 18.49999618530273 2.879761934280396 18.19214630126953 2.619191884994507 17.6764965057373 C 2.35863184928894 17.16084480285645 2.407681941986084 16.57531547546387 2.750401973724365 16.11020660400391 L 12.7924222946167 2.48175573348999 C 13.07816219329834 2.093955755233765 13.51831150054932 1.871545672416687 14.00000190734863 1.871545672416687 C 14.48169231414795 1.871545672416687 14.92184162139893 2.093955755233765 15.20758152008057 2.48175573348999 L 25.24960136413574 16.11020660400391 C 25.59228134155273 16.57526588439941 25.64130210876465 17.16077613830566 25.3807315826416 17.67644500732422 C 25.12015151977539 18.19212532043457 24.61971282958984 18.49999618530273 24.04203224182129 18.49999618530273 Z"/>
              <path class="cls-10" d="M 14.00000190734863 2.371545791625977 C 13.67887210845947 2.371545791625977 13.38544178009033 2.519815444946289 13.1949520111084 2.778356552124023 L 3.152921676635742 16.40680503845215 C 2.92445182800293 16.71687507629395 2.891752243041992 17.10722541809082 3.065462112426758 17.45099639892578 C 3.239162445068359 17.79476547241211 3.572822570800781 17.99999618530273 3.957981109619141 17.99999618530273 L 24.04203224182129 17.99999618530273 C 24.42712211608887 17.99999618530273 24.7607421875 17.79474639892578 24.93447113037109 17.4509449005127 C 25.10818099975586 17.1071662902832 25.07551193237305 16.71682548522949 24.84707260131836 16.40680503845215 L 14.80505180358887 2.778356552124023 C 14.61456203460693 2.519824981689453 14.32113170623779 2.371545791625977 14.00000190734863 2.371545791625977 M 14.00000190734863 1.371547698974609 C 14.605224609375 1.371547698974609 15.21044731140137 1.642749786376953 15.61011219024658 2.185155868530273 L 25.65213203430176 15.81360626220703 C 26.62515258789062 17.13412475585938 25.68089485168457 18.99935913085938 24.04202270507812 18.99999618530273 L 3.957981109619141 18.99999618530273 C 2.317691802978516 18.99999618530273 1.374851226806641 17.13412475585938 2.347871780395508 15.81360626220703 L 12.38989162445068 2.185155868530273 C 12.7895565032959 1.642749786376953 13.39477920532227 1.371547698974609 14.00000190734863 1.371547698974609 Z"/>
            </g>
          </g>
          <text id="_2" data-name="2" class="cls-7" transform="translate(11 20)"><tspan x="0" y="0">2</tspan></text>
        </g>
      </g>
      <g id="Group_423" data-name="Group 423" transform="translate(-34)">
        <text id="Titles_are_difficult_to_read_with_the_graphics_used_as_backgrounds" data-name="Titles are difficult to read with the graphics used as backgrounds" class="cls-4" transform="translate(6757 -17779)"><tspan x="0" y="16">Titles are difficult to read with the </tspan><tspan x="0" y="38">graphics used as backgrounds</tspan></text>
        <g id="Component_1_158" data-name="Component 1 – 158" transform="translate(6720 -17776.635)">
          <g id="Group_1-2" data-name="Group 1" transform="translate(1419 286) rotate(180)">
            <g id="Ellipse_1-2" data-name="Ellipse 1" class="cls-5" transform="translate(1389 256)">
              <circle class="cls-8" cx="15" cy="15" r="15"/>
              <circle class="cls-9" cx="15" cy="15" r="14.5"/>
            </g>
            <g id="Polygon_1-2" data-name="Polygon 1" class="cls-6" transform="translate(1390 246)">
              <path class="cls-8" d="M 24.04203224182129 18.49999618530273 L 24.04202270507812 18.49999618530273 L 3.957981824874878 18.49999618530273 C 3.380241870880127 18.49999618530273 2.879761934280396 18.19214630126953 2.619191884994507 17.6764965057373 C 2.35863184928894 17.16084480285645 2.407681941986084 16.57531547546387 2.750401973724365 16.11020660400391 L 12.7924222946167 2.48175573348999 C 13.07816219329834 2.093955755233765 13.51831150054932 1.871545672416687 14.00000190734863 1.871545672416687 C 14.48169231414795 1.871545672416687 14.92184162139893 2.093955755233765 15.20758152008057 2.48175573348999 L 25.24960136413574 16.11020660400391 C 25.59228134155273 16.57526588439941 25.64130210876465 17.16077613830566 25.3807315826416 17.67644500732422 C 25.12015151977539 18.19212532043457 24.61971282958984 18.49999618530273 24.04203224182129 18.49999618530273 Z"/>
              <path class="cls-10" d="M 14.00000190734863 2.371545791625977 C 13.67887210845947 2.371545791625977 13.38544178009033 2.519815444946289 13.1949520111084 2.778356552124023 L 3.152921676635742 16.40680503845215 C 2.92445182800293 16.71687507629395 2.891752243041992 17.10722541809082 3.065462112426758 17.45099639892578 C 3.239162445068359 17.79476547241211 3.572822570800781 17.99999618530273 3.957981109619141 17.99999618530273 L 24.04203224182129 17.99999618530273 C 24.42712211608887 17.99999618530273 24.7607421875 17.79474639892578 24.93447113037109 17.4509449005127 C 25.10818099975586 17.1071662902832 25.07551193237305 16.71682548522949 24.84707260131836 16.40680503845215 L 14.80505180358887 2.778356552124023 C 14.61456203460693 2.519824981689453 14.32113170623779 2.371545791625977 14.00000190734863 2.371545791625977 M 14.00000190734863 1.371547698974609 C 14.605224609375 1.371547698974609 15.21044731140137 1.642749786376953 15.61011219024658 2.185155868530273 L 25.65213203430176 15.81360626220703 C 26.62515258789062 17.13412475585938 25.68089485168457 18.99935913085938 24.04202270507812 18.99999618530273 L 3.957981109619141 18.99999618530273 C 2.317691802978516 18.99999618530273 1.374851226806641 17.13412475585938 2.347871780395508 15.81360626220703 L 12.38989162445068 2.185155868530273 C 12.7895565032959 1.642749786376953 13.39477920532227 1.371547698974609 14.00000190734863 1.371547698974609 Z"/>
            </g>
          </g>
          <text id="_1" data-name="1" class="cls-7" transform="translate(11 20)"><tspan x="0" y="0">1</tspan></text>
        </g>
      </g>
      <g id="Group_435" data-name="Group 435" transform="translate(-34 120)">
        <text id="Not_all_background_colors_typeface_colors_pass_visibility_test" data-name="Not all background colors + typeface colors pass visibility test" class="cls-4" transform="translate(6757 -17779)"><tspan x="0" y="16">Not all background colors + </tspan><tspan x="0" y="38">typeface colors pass visibility test</tspan></text>
        <g id="Component_1_159" data-name="Component 1 – 159" transform="translate(6720 -17776.635)">
          <g id="Group_1-3" data-name="Group 1" transform="translate(1419 286) rotate(180)">
            <g id="Ellipse_1-3" data-name="Ellipse 1" class="cls-5" transform="translate(1389 256)">
              <circle class="cls-8" cx="15" cy="15" r="15"/>
              <circle class="cls-9" cx="15" cy="15" r="14.5"/>
            </g>
            <g id="Polygon_1-3" data-name="Polygon 1" class="cls-6" transform="translate(1390 246)">
              <path class="cls-8" d="M 24.04203224182129 18.49999618530273 L 24.04202270507812 18.49999618530273 L 3.957981824874878 18.49999618530273 C 3.380241870880127 18.49999618530273 2.879761934280396 18.19214630126953 2.619191884994507 17.6764965057373 C 2.35863184928894 17.16084480285645 2.407681941986084 16.57531547546387 2.750401973724365 16.11020660400391 L 12.7924222946167 2.48175573348999 C 13.07816219329834 2.093955755233765 13.51831150054932 1.871545672416687 14.00000190734863 1.871545672416687 C 14.48169231414795 1.871545672416687 14.92184162139893 2.093955755233765 15.20758152008057 2.48175573348999 L 25.24960136413574 16.11020660400391 C 25.59228134155273 16.57526588439941 25.64130210876465 17.16077613830566 25.3807315826416 17.67644500732422 C 25.12015151977539 18.19212532043457 24.61971282958984 18.49999618530273 24.04203224182129 18.49999618530273 Z"/>
              <path class="cls-10" d="M 14.00000190734863 2.371545791625977 C 13.67887210845947 2.371545791625977 13.38544178009033 2.519815444946289 13.1949520111084 2.778356552124023 L 3.152921676635742 16.40680503845215 C 2.92445182800293 16.71687507629395 2.891752243041992 17.10722541809082 3.065462112426758 17.45099639892578 C 3.239162445068359 17.79476547241211 3.572822570800781 17.99999618530273 3.957981109619141 17.99999618530273 L 24.04203224182129 17.99999618530273 C 24.42712211608887 17.99999618530273 24.7607421875 17.79474639892578 24.93447113037109 17.4509449005127 C 25.10818099975586 17.1071662902832 25.07551193237305 16.71682548522949 24.84707260131836 16.40680503845215 L 14.80505180358887 2.778356552124023 C 14.61456203460693 2.519824981689453 14.32113170623779 2.371545791625977 14.00000190734863 2.371545791625977 M 14.00000190734863 1.371547698974609 C 14.605224609375 1.371547698974609 15.21044731140137 1.642749786376953 15.61011219024658 2.185155868530273 L 25.65213203430176 15.81360626220703 C 26.62515258789062 17.13412475585938 25.68089485168457 18.99935913085938 24.04202270507812 18.99999618530273 L 3.957981109619141 18.99999618530273 C 2.317691802978516 18.99999618530273 1.374851226806641 17.13412475585938 2.347871780395508 15.81360626220703 L 12.38989162445068 2.185155868530273 C 12.7895565032959 1.642749786376953 13.39477920532227 1.371547698974609 14.00000190734863 1.371547698974609 Z"/>
            </g>
          </g>
          <text id="_3" data-name="3" class="cls-7" transform="translate(11 20)"><tspan x="0" y="0">3</tspan></text>
        </g>
      </g>
      <g id="Group_436" data-name="Group 436" transform="translate(-34 180)">
        <text id="Inconsistent_use_of_white_space_uneven" data-name="Inconsistent use of white space/uneven" class="cls-4" transform="translate(6757 -17779)"><tspan x="0" y="16">Inconsistent use of white space/</tspan><tspan x="0" y="38">uneven</tspan></text>
        <g id="Component_1_160" data-name="Component 1 – 160" transform="translate(6720 -17776.635)">
          <g id="Group_1-4" data-name="Group 1" transform="translate(1419 286) rotate(180)">
            <g id="Ellipse_1-4" data-name="Ellipse 1" class="cls-5" transform="translate(1389 256)">
              <circle class="cls-8" cx="15" cy="15" r="15"/>
              <circle class="cls-9" cx="15" cy="15" r="14.5"/>
            </g>
            <g id="Polygon_1-4" data-name="Polygon 1" class="cls-6" transform="translate(1390 246)">
              <path class="cls-8" d="M 24.04203224182129 18.49999618530273 L 24.04202270507812 18.49999618530273 L 3.957981824874878 18.49999618530273 C 3.380241870880127 18.49999618530273 2.879761934280396 18.19214630126953 2.619191884994507 17.6764965057373 C 2.35863184928894 17.16084480285645 2.407681941986084 16.57531547546387 2.750401973724365 16.11020660400391 L 12.7924222946167 2.48175573348999 C 13.07816219329834 2.093955755233765 13.51831150054932 1.871545672416687 14.00000190734863 1.871545672416687 C 14.48169231414795 1.871545672416687 14.92184162139893 2.093955755233765 15.20758152008057 2.48175573348999 L 25.24960136413574 16.11020660400391 C 25.59228134155273 16.57526588439941 25.64130210876465 17.16077613830566 25.3807315826416 17.67644500732422 C 25.12015151977539 18.19212532043457 24.61971282958984 18.49999618530273 24.04203224182129 18.49999618530273 Z"/>
              <path class="cls-10" d="M 14.00000190734863 2.371545791625977 C 13.67887210845947 2.371545791625977 13.38544178009033 2.519815444946289 13.1949520111084 2.778356552124023 L 3.152921676635742 16.40680503845215 C 2.92445182800293 16.71687507629395 2.891752243041992 17.10722541809082 3.065462112426758 17.45099639892578 C 3.239162445068359 17.79476547241211 3.572822570800781 17.99999618530273 3.957981109619141 17.99999618530273 L 24.04203224182129 17.99999618530273 C 24.42712211608887 17.99999618530273 24.7607421875 17.79474639892578 24.93447113037109 17.4509449005127 C 25.10818099975586 17.1071662902832 25.07551193237305 16.71682548522949 24.84707260131836 16.40680503845215 L 14.80505180358887 2.778356552124023 C 14.61456203460693 2.519824981689453 14.32113170623779 2.371545791625977 14.00000190734863 2.371545791625977 M 14.00000190734863 1.371547698974609 C 14.605224609375 1.371547698974609 15.21044731140137 1.642749786376953 15.61011219024658 2.185155868530273 L 25.65213203430176 15.81360626220703 C 26.62515258789062 17.13412475585938 25.68089485168457 18.99935913085938 24.04202270507812 18.99999618530273 L 3.957981109619141 18.99999618530273 C 2.317691802978516 18.99999618530273 1.374851226806641 17.13412475585938 2.347871780395508 15.81360626220703 L 12.38989162445068 2.185155868530273 C 12.7895565032959 1.642749786376953 13.39477920532227 1.371547698974609 14.00000190734863 1.371547698974609 Z"/>
            </g>
          </g>
          <text id="_4" data-name="4" class="cls-7" transform="translate(11 20)"><tspan x="0" y="0">4</tspan></text>
        </g>
      </g>
      <g id="Group_437" data-name="Group 437" transform="translate(291)">
        <text id="Inconsistency_with_headers_no_photos_on_some_" data-name="Inconsistency with headers (no photos on some)" class="cls-4" transform="translate(6757 -17779)"><tspan x="0" y="16">Inconsistency with headers (no </tspan><tspan x="0" y="38">photos on some)</tspan></text>
        <g id="Component_1_161" data-name="Component 1 – 161" transform="translate(6720 -17776.635)">
          <g id="Group_1-5" data-name="Group 1" transform="translate(1419 286) rotate(180)">
            <g id="Ellipse_1-5" data-name="Ellipse 1" class="cls-5" transform="translate(1389 256)">
              <circle class="cls-8" cx="15" cy="15" r="15"/>
              <circle class="cls-9" cx="15" cy="15" r="14.5"/>
            </g>
            <g id="Polygon_1-5" data-name="Polygon 1" class="cls-6" transform="translate(1390 246)">
              <path class="cls-8" d="M 24.04203224182129 18.49999618530273 L 24.04202270507812 18.49999618530273 L 3.957981824874878 18.49999618530273 C 3.380241870880127 18.49999618530273 2.879761934280396 18.19214630126953 2.619191884994507 17.6764965057373 C 2.35863184928894 17.16084480285645 2.407681941986084 16.57531547546387 2.750401973724365 16.11020660400391 L 12.7924222946167 2.48175573348999 C 13.07816219329834 2.093955755233765 13.51831150054932 1.871545672416687 14.00000190734863 1.871545672416687 C 14.48169231414795 1.871545672416687 14.92184162139893 2.093955755233765 15.20758152008057 2.48175573348999 L 25.24960136413574 16.11020660400391 C 25.59228134155273 16.57526588439941 25.64130210876465 17.16077613830566 25.3807315826416 17.67644500732422 C 25.12015151977539 18.19212532043457 24.61971282958984 18.49999618530273 24.04203224182129 18.49999618530273 Z"/>
              <path class="cls-10" d="M 14.00000190734863 2.371545791625977 C 13.67887210845947 2.371545791625977 13.38544178009033 2.519815444946289 13.1949520111084 2.778356552124023 L 3.152921676635742 16.40680503845215 C 2.92445182800293 16.71687507629395 2.891752243041992 17.10722541809082 3.065462112426758 17.45099639892578 C 3.239162445068359 17.79476547241211 3.572822570800781 17.99999618530273 3.957981109619141 17.99999618530273 L 24.04203224182129 17.99999618530273 C 24.42712211608887 17.99999618530273 24.7607421875 17.79474639892578 24.93447113037109 17.4509449005127 C 25.10818099975586 17.1071662902832 25.07551193237305 16.71682548522949 24.84707260131836 16.40680503845215 L 14.80505180358887 2.778356552124023 C 14.61456203460693 2.519824981689453 14.32113170623779 2.371545791625977 14.00000190734863 2.371545791625977 M 14.00000190734863 1.371547698974609 C 14.605224609375 1.371547698974609 15.21044731140137 1.642749786376953 15.61011219024658 2.185155868530273 L 25.65213203430176 15.81360626220703 C 26.62515258789062 17.13412475585938 25.68089485168457 18.99935913085938 24.04202270507812 18.99999618530273 L 3.957981109619141 18.99999618530273 C 2.317691802978516 18.99999618530273 1.374851226806641 17.13412475585938 2.347871780395508 15.81360626220703 L 12.38989162445068 2.185155868530273 C 12.7895565032959 1.642749786376953 13.39477920532227 1.371547698974609 14.00000190734863 1.371547698974609 Z"/>
            </g>
          </g>
          <text id="_5" data-name="5" class="cls-7" transform="translate(11 20)"><tspan x="0" y="0">5</tspan></text>
        </g>
      </g>
      <g id="Group_438" data-name="Group 438" transform="translate(291 60)">
        <text id="Pin_numbers_should_correlate_with_list_of_locations_below_the_map" data-name="Pin numbers should correlate with list of locations below the map" class="cls-4" transform="translate(6757 -17779)"><tspan x="0" y="16">Pin numbers should correlate with </tspan><tspan x="0" y="38">list of locations below the map</tspan></text>
        <g id="Component_1_162" data-name="Component 1 – 162" transform="translate(6720 -17776.635)">
          <g id="Group_1-6" data-name="Group 1" transform="translate(1419 286) rotate(180)">
            <g id="Ellipse_1-6" data-name="Ellipse 1" class="cls-5" transform="translate(1389 256)">
              <circle class="cls-8" cx="15" cy="15" r="15"/>
              <circle class="cls-9" cx="15" cy="15" r="14.5"/>
            </g>
            <g id="Polygon_1-6" data-name="Polygon 1" class="cls-6" transform="translate(1390 246)">
              <path class="cls-8" d="M 24.04203224182129 18.49999618530273 L 24.04202270507812 18.49999618530273 L 3.957981824874878 18.49999618530273 C 3.380241870880127 18.49999618530273 2.879761934280396 18.19214630126953 2.619191884994507 17.6764965057373 C 2.35863184928894 17.16084480285645 2.407681941986084 16.57531547546387 2.750401973724365 16.11020660400391 L 12.7924222946167 2.48175573348999 C 13.07816219329834 2.093955755233765 13.51831150054932 1.871545672416687 14.00000190734863 1.871545672416687 C 14.48169231414795 1.871545672416687 14.92184162139893 2.093955755233765 15.20758152008057 2.48175573348999 L 25.24960136413574 16.11020660400391 C 25.59228134155273 16.57526588439941 25.64130210876465 17.16077613830566 25.3807315826416 17.67644500732422 C 25.12015151977539 18.19212532043457 24.61971282958984 18.49999618530273 24.04203224182129 18.49999618530273 Z"/>
              <path class="cls-10" d="M 14.00000190734863 2.371545791625977 C 13.67887210845947 2.371545791625977 13.38544178009033 2.519815444946289 13.1949520111084 2.778356552124023 L 3.152921676635742 16.40680503845215 C 2.92445182800293 16.71687507629395 2.891752243041992 17.10722541809082 3.065462112426758 17.45099639892578 C 3.239162445068359 17.79476547241211 3.572822570800781 17.99999618530273 3.957981109619141 17.99999618530273 L 24.04203224182129 17.99999618530273 C 24.42712211608887 17.99999618530273 24.7607421875 17.79474639892578 24.93447113037109 17.4509449005127 C 25.10818099975586 17.1071662902832 25.07551193237305 16.71682548522949 24.84707260131836 16.40680503845215 L 14.80505180358887 2.778356552124023 C 14.61456203460693 2.519824981689453 14.32113170623779 2.371545791625977 14.00000190734863 2.371545791625977 M 14.00000190734863 1.371547698974609 C 14.605224609375 1.371547698974609 15.21044731140137 1.642749786376953 15.61011219024658 2.185155868530273 L 25.65213203430176 15.81360626220703 C 26.62515258789062 17.13412475585938 25.68089485168457 18.99935913085938 24.04202270507812 18.99999618530273 L 3.957981109619141 18.99999618530273 C 2.317691802978516 18.99999618530273 1.374851226806641 17.13412475585938 2.347871780395508 15.81360626220703 L 12.38989162445068 2.185155868530273 C 12.7895565032959 1.642749786376953 13.39477920532227 1.371547698974609 14.00000190734863 1.371547698974609 Z"/>
            </g>
          </g>
          <text id="_6" data-name="6" class="cls-7" transform="translate(11 20)"><tspan x="0" y="0">6</tspan></text>
        </g>
      </g>
      <g id="Group_439" data-name="Group 439" transform="translate(291 120)">
        <text id="No_indications_of_what_button_functions_are" data-name="No indications of what button functions are" class="cls-4" transform="translate(6757 -17779)"><tspan x="0" y="16">No indications of what button </tspan><tspan x="0" y="38">functions are</tspan></text>
        <g id="Component_1_163" data-name="Component 1 – 163" transform="translate(6720 -17776.635)">
          <g id="Group_1-7" data-name="Group 1" transform="translate(1419 286) rotate(180)">
            <g id="Ellipse_1-7" data-name="Ellipse 1" class="cls-5" transform="translate(1389 256)">
              <circle class="cls-8" cx="15" cy="15" r="15"/>
              <circle class="cls-9" cx="15" cy="15" r="14.5"/>
            </g>
            <g id="Polygon_1-7" data-name="Polygon 1" class="cls-6" transform="translate(1390 246)">
              <path class="cls-8" d="M 24.04203224182129 18.49999618530273 L 24.04202270507812 18.49999618530273 L 3.957981824874878 18.49999618530273 C 3.380241870880127 18.49999618530273 2.879761934280396 18.19214630126953 2.619191884994507 17.6764965057373 C 2.35863184928894 17.16084480285645 2.407681941986084 16.57531547546387 2.750401973724365 16.11020660400391 L 12.7924222946167 2.48175573348999 C 13.07816219329834 2.093955755233765 13.51831150054932 1.871545672416687 14.00000190734863 1.871545672416687 C 14.48169231414795 1.871545672416687 14.92184162139893 2.093955755233765 15.20758152008057 2.48175573348999 L 25.24960136413574 16.11020660400391 C 25.59228134155273 16.57526588439941 25.64130210876465 17.16077613830566 25.3807315826416 17.67644500732422 C 25.12015151977539 18.19212532043457 24.61971282958984 18.49999618530273 24.04203224182129 18.49999618530273 Z"/>
              <path class="cls-10" d="M 14.00000190734863 2.371545791625977 C 13.67887210845947 2.371545791625977 13.38544178009033 2.519815444946289 13.1949520111084 2.778356552124023 L 3.152921676635742 16.40680503845215 C 2.92445182800293 16.71687507629395 2.891752243041992 17.10722541809082 3.065462112426758 17.45099639892578 C 3.239162445068359 17.79476547241211 3.572822570800781 17.99999618530273 3.957981109619141 17.99999618530273 L 24.04203224182129 17.99999618530273 C 24.42712211608887 17.99999618530273 24.7607421875 17.79474639892578 24.93447113037109 17.4509449005127 C 25.10818099975586 17.1071662902832 25.07551193237305 16.71682548522949 24.84707260131836 16.40680503845215 L 14.80505180358887 2.778356552124023 C 14.61456203460693 2.519824981689453 14.32113170623779 2.371545791625977 14.00000190734863 2.371545791625977 M 14.00000190734863 1.371547698974609 C 14.605224609375 1.371547698974609 15.21044731140137 1.642749786376953 15.61011219024658 2.185155868530273 L 25.65213203430176 15.81360626220703 C 26.62515258789062 17.13412475585938 25.68089485168457 18.99935913085938 24.04202270507812 18.99999618530273 L 3.957981109619141 18.99999618530273 C 2.317691802978516 18.99999618530273 1.374851226806641 17.13412475585938 2.347871780395508 15.81360626220703 L 12.38989162445068 2.185155868530273 C 12.7895565032959 1.642749786376953 13.39477920532227 1.371547698974609 14.00000190734863 1.371547698974609 Z"/>
            </g>
          </g>
          <text id="_7" data-name="7" class="cls-7" transform="translate(11 20)"><tspan x="0" y="0">7</tspan></text>
        </g>
      </g>
      <g id="Group_440" data-name="Group 440" transform="translate(291 180)">
        <text id="Uses_photos_that_are_helpful_and_or_relevant_to_the_titles_articles" data-name="Uses photos that are helpful and/or relevant to the titles/articles" class="cls-4" transform="translate(6757 -17779)"><tspan x="0" y="16">Uses photos that are helpful and/or </tspan><tspan x="0" y="38">relevant to the titles/articles</tspan></text>
        <g id="Component_1_164" data-name="Component 1 – 164" transform="translate(6720 -17776.635)">
          <g id="Group_1-8" data-name="Group 1" transform="translate(1419 286) rotate(180)">
            <g id="Ellipse_1-8" data-name="Ellipse 1" class="cls-5" transform="translate(1389 256)">
              <circle class="cls-8" cx="15" cy="15" r="15"/>
              <circle class="cls-9" cx="15" cy="15" r="14.5"/>
            </g>
            <g id="Polygon_1-8" data-name="Polygon 1" class="cls-6" transform="translate(1390 246)">
              <path class="cls-8" d="M 24.04203224182129 18.49999618530273 L 24.04202270507812 18.49999618530273 L 3.957981824874878 18.49999618530273 C 3.380241870880127 18.49999618530273 2.879761934280396 18.19214630126953 2.619191884994507 17.6764965057373 C 2.35863184928894 17.16084480285645 2.407681941986084 16.57531547546387 2.750401973724365 16.11020660400391 L 12.7924222946167 2.48175573348999 C 13.07816219329834 2.093955755233765 13.51831150054932 1.871545672416687 14.00000190734863 1.871545672416687 C 14.48169231414795 1.871545672416687 14.92184162139893 2.093955755233765 15.20758152008057 2.48175573348999 L 25.24960136413574 16.11020660400391 C 25.59228134155273 16.57526588439941 25.64130210876465 17.16077613830566 25.3807315826416 17.67644500732422 C 25.12015151977539 18.19212532043457 24.61971282958984 18.49999618530273 24.04203224182129 18.49999618530273 Z"/>
              <path class="cls-10" d="M 14.00000190734863 2.371545791625977 C 13.67887210845947 2.371545791625977 13.38544178009033 2.519815444946289 13.1949520111084 2.778356552124023 L 3.152921676635742 16.40680503845215 C 2.92445182800293 16.71687507629395 2.891752243041992 17.10722541809082 3.065462112426758 17.45099639892578 C 3.239162445068359 17.79476547241211 3.572822570800781 17.99999618530273 3.957981109619141 17.99999618530273 L 24.04203224182129 17.99999618530273 C 24.42712211608887 17.99999618530273 24.7607421875 17.79474639892578 24.93447113037109 17.4509449005127 C 25.10818099975586 17.1071662902832 25.07551193237305 16.71682548522949 24.84707260131836 16.40680503845215 L 14.80505180358887 2.778356552124023 C 14.61456203460693 2.519824981689453 14.32113170623779 2.371545791625977 14.00000190734863 2.371545791625977 M 14.00000190734863 1.371547698974609 C 14.605224609375 1.371547698974609 15.21044731140137 1.642749786376953 15.61011219024658 2.185155868530273 L 25.65213203430176 15.81360626220703 C 26.62515258789062 17.13412475585938 25.68089485168457 18.99935913085938 24.04202270507812 18.99999618530273 L 3.957981109619141 18.99999618530273 C 2.317691802978516 18.99999618530273 1.374851226806641 17.13412475585938 2.347871780395508 15.81360626220703 L 12.38989162445068 2.185155868530273 C 12.7895565032959 1.642749786376953 13.39477920532227 1.371547698974609 14.00000190734863 1.371547698974609 Z"/>
            </g>
          </g>
          <text id="_8" data-name="8" class="cls-7" transform="translate(11 20)"><tspan x="0" y="0">8</tspan></text>
        </g>
      </g>
      <g id="Group_441" data-name="Group 441" transform="translate(616)">
        <text id="Inconsistent_links_on_page_most_are_highlights_blue_confused_with_article" data-name="Inconsistent links on page, most are highlights blue, confused with article" class="cls-4" transform="translate(6757 -17779)"><tspan x="0" y="16">Inconsistent links on page, most are </tspan><tspan x="0" y="38">highlights blue, confused with article</tspan></text>
        <g id="Component_1_165" data-name="Component 1 – 165" transform="translate(6720 -17776.635)">
          <g id="Group_1-9" data-name="Group 1" transform="translate(1419 286) rotate(180)">
            <g id="Ellipse_1-9" data-name="Ellipse 1" class="cls-5" transform="translate(1389 256)">
              <circle class="cls-8" cx="15" cy="15" r="15"/>
              <circle class="cls-9" cx="15" cy="15" r="14.5"/>
            </g>
            <g id="Polygon_1-9" data-name="Polygon 1" class="cls-6" transform="translate(1390 246)">
              <path class="cls-8" d="M 24.04203224182129 18.49999618530273 L 24.04202270507812 18.49999618530273 L 3.957981824874878 18.49999618530273 C 3.380241870880127 18.49999618530273 2.879761934280396 18.19214630126953 2.619191884994507 17.6764965057373 C 2.35863184928894 17.16084480285645 2.407681941986084 16.57531547546387 2.750401973724365 16.11020660400391 L 12.7924222946167 2.48175573348999 C 13.07816219329834 2.093955755233765 13.51831150054932 1.871545672416687 14.00000190734863 1.871545672416687 C 14.48169231414795 1.871545672416687 14.92184162139893 2.093955755233765 15.20758152008057 2.48175573348999 L 25.24960136413574 16.11020660400391 C 25.59228134155273 16.57526588439941 25.64130210876465 17.16077613830566 25.3807315826416 17.67644500732422 C 25.12015151977539 18.19212532043457 24.61971282958984 18.49999618530273 24.04203224182129 18.49999618530273 Z"/>
              <path class="cls-10" d="M 14.00000190734863 2.371545791625977 C 13.67887210845947 2.371545791625977 13.38544178009033 2.519815444946289 13.1949520111084 2.778356552124023 L 3.152921676635742 16.40680503845215 C 2.92445182800293 16.71687507629395 2.891752243041992 17.10722541809082 3.065462112426758 17.45099639892578 C 3.239162445068359 17.79476547241211 3.572822570800781 17.99999618530273 3.957981109619141 17.99999618530273 L 24.04203224182129 17.99999618530273 C 24.42712211608887 17.99999618530273 24.7607421875 17.79474639892578 24.93447113037109 17.4509449005127 C 25.10818099975586 17.1071662902832 25.07551193237305 16.71682548522949 24.84707260131836 16.40680503845215 L 14.80505180358887 2.778356552124023 C 14.61456203460693 2.519824981689453 14.32113170623779 2.371545791625977 14.00000190734863 2.371545791625977 M 14.00000190734863 1.371547698974609 C 14.605224609375 1.371547698974609 15.21044731140137 1.642749786376953 15.61011219024658 2.185155868530273 L 25.65213203430176 15.81360626220703 C 26.62515258789062 17.13412475585938 25.68089485168457 18.99935913085938 24.04202270507812 18.99999618530273 L 3.957981109619141 18.99999618530273 C 2.317691802978516 18.99999618530273 1.374851226806641 17.13412475585938 2.347871780395508 15.81360626220703 L 12.38989162445068 2.185155868530273 C 12.7895565032959 1.642749786376953 13.39477920532227 1.371547698974609 14.00000190734863 1.371547698974609 Z"/>
            </g>
          </g>
          <text id="_9" data-name="9" class="cls-7" transform="translate(11 20)"><tspan x="0" y="0">9</tspan></text>
        </g>
      </g>
      <g id="Group_442" data-name="Group 442" transform="translate(616 60)">
        <text id="Links_amongst_black_text_are_blue_throughout_indicates_clickable" data-name="Links amongst black text are blue throughout, indicates clickable" class="cls-4" transform="translate(6757 -17779)"><tspan x="0" y="16">Links amongst black text are blue </tspan><tspan x="0" y="38">throughout, indicates clickable</tspan></text>
        <g id="Component_1_166" data-name="Component 1 – 166" transform="translate(6720 -17776.635)">
          <g id="Group_1-10" data-name="Group 1" transform="translate(1419 286) rotate(180)">
            <g id="Ellipse_1-10" data-name="Ellipse 1" class="cls-5" transform="translate(1389 256)">
              <circle class="cls-8" cx="15" cy="15" r="15"/>
              <circle class="cls-9" cx="15" cy="15" r="14.5"/>
            </g>
            <g id="Polygon_1-10" data-name="Polygon 1" class="cls-6" transform="translate(1390 246)">
              <path class="cls-8" d="M 24.04203224182129 18.49999618530273 L 24.04202270507812 18.49999618530273 L 3.957981824874878 18.49999618530273 C 3.380241870880127 18.49999618530273 2.879761934280396 18.19214630126953 2.619191884994507 17.6764965057373 C 2.35863184928894 17.16084480285645 2.407681941986084 16.57531547546387 2.750401973724365 16.11020660400391 L 12.7924222946167 2.48175573348999 C 13.07816219329834 2.093955755233765 13.51831150054932 1.871545672416687 14.00000190734863 1.871545672416687 C 14.48169231414795 1.871545672416687 14.92184162139893 2.093955755233765 15.20758152008057 2.48175573348999 L 25.24960136413574 16.11020660400391 C 25.59228134155273 16.57526588439941 25.64130210876465 17.16077613830566 25.3807315826416 17.67644500732422 C 25.12015151977539 18.19212532043457 24.61971282958984 18.49999618530273 24.04203224182129 18.49999618530273 Z"/>
              <path class="cls-10" d="M 14.00000190734863 2.371545791625977 C 13.67887210845947 2.371545791625977 13.38544178009033 2.519815444946289 13.1949520111084 2.778356552124023 L 3.152921676635742 16.40680503845215 C 2.92445182800293 16.71687507629395 2.891752243041992 17.10722541809082 3.065462112426758 17.45099639892578 C 3.239162445068359 17.79476547241211 3.572822570800781 17.99999618530273 3.957981109619141 17.99999618530273 L 24.04203224182129 17.99999618530273 C 24.42712211608887 17.99999618530273 24.7607421875 17.79474639892578 24.93447113037109 17.4509449005127 C 25.10818099975586 17.1071662902832 25.07551193237305 16.71682548522949 24.84707260131836 16.40680503845215 L 14.80505180358887 2.778356552124023 C 14.61456203460693 2.519824981689453 14.32113170623779 2.371545791625977 14.00000190734863 2.371545791625977 M 14.00000190734863 1.371547698974609 C 14.605224609375 1.371547698974609 15.21044731140137 1.642749786376953 15.61011219024658 2.185155868530273 L 25.65213203430176 15.81360626220703 C 26.62515258789062 17.13412475585938 25.68089485168457 18.99935913085938 24.04202270507812 18.99999618530273 L 3.957981109619141 18.99999618530273 C 2.317691802978516 18.99999618530273 1.374851226806641 17.13412475585938 2.347871780395508 15.81360626220703 L 12.38989162445068 2.185155868530273 C 12.7895565032959 1.642749786376953 13.39477920532227 1.371547698974609 14.00000190734863 1.371547698974609 Z"/>
            </g>
          </g>
          <text id="_10" data-name="10" class="cls-7" transform="translate(6 20)"><tspan x="0" y="0">10</tspan></text>
        </g>
      </g>
      <g id="Group_443" data-name="Group 443" transform="translate(616 120)">
        <text id="White_text_box_gets_lost_in_the_background" data-name="White text box gets lost in the background" class="cls-4" transform="translate(6757 -17779)"><tspan x="0" y="16">White text box gets lost in the </tspan><tspan x="0" y="38">background</tspan></text>
        <g id="Component_1_167" data-name="Component 1 – 167" transform="translate(6720 -17776.635)">
          <g id="Group_1-11" data-name="Group 1" transform="translate(1419 286) rotate(180)">
            <g id="Ellipse_1-11" data-name="Ellipse 1" class="cls-5" transform="translate(1389 256)">
              <circle class="cls-8" cx="15" cy="15" r="15"/>
              <circle class="cls-9" cx="15" cy="15" r="14.5"/>
            </g>
            <g id="Polygon_1-11" data-name="Polygon 1" class="cls-6" transform="translate(1390 246)">
              <path class="cls-8" d="M 24.04203224182129 18.49999618530273 L 24.04202270507812 18.49999618530273 L 3.957981824874878 18.49999618530273 C 3.380241870880127 18.49999618530273 2.879761934280396 18.19214630126953 2.619191884994507 17.6764965057373 C 2.35863184928894 17.16084480285645 2.407681941986084 16.57531547546387 2.750401973724365 16.11020660400391 L 12.7924222946167 2.48175573348999 C 13.07816219329834 2.093955755233765 13.51831150054932 1.871545672416687 14.00000190734863 1.871545672416687 C 14.48169231414795 1.871545672416687 14.92184162139893 2.093955755233765 15.20758152008057 2.48175573348999 L 25.24960136413574 16.11020660400391 C 25.59228134155273 16.57526588439941 25.64130210876465 17.16077613830566 25.3807315826416 17.67644500732422 C 25.12015151977539 18.19212532043457 24.61971282958984 18.49999618530273 24.04203224182129 18.49999618530273 Z"/>
              <path class="cls-10" d="M 14.00000190734863 2.371545791625977 C 13.67887210845947 2.371545791625977 13.38544178009033 2.519815444946289 13.1949520111084 2.778356552124023 L 3.152921676635742 16.40680503845215 C 2.92445182800293 16.71687507629395 2.891752243041992 17.10722541809082 3.065462112426758 17.45099639892578 C 3.239162445068359 17.79476547241211 3.572822570800781 17.99999618530273 3.957981109619141 17.99999618530273 L 24.04203224182129 17.99999618530273 C 24.42712211608887 17.99999618530273 24.7607421875 17.79474639892578 24.93447113037109 17.4509449005127 C 25.10818099975586 17.1071662902832 25.07551193237305 16.71682548522949 24.84707260131836 16.40680503845215 L 14.80505180358887 2.778356552124023 C 14.61456203460693 2.519824981689453 14.32113170623779 2.371545791625977 14.00000190734863 2.371545791625977 M 14.00000190734863 1.371547698974609 C 14.605224609375 1.371547698974609 15.21044731140137 1.642749786376953 15.61011219024658 2.185155868530273 L 25.65213203430176 15.81360626220703 C 26.62515258789062 17.13412475585938 25.68089485168457 18.99935913085938 24.04202270507812 18.99999618530273 L 3.957981109619141 18.99999618530273 C 2.317691802978516 18.99999618530273 1.374851226806641 17.13412475585938 2.347871780395508 15.81360626220703 L 12.38989162445068 2.185155868530273 C 12.7895565032959 1.642749786376953 13.39477920532227 1.371547698974609 14.00000190734863 1.371547698974609 Z"/>
            </g>
          </g>
          <text id="_11" data-name="11" class="cls-7" transform="translate(6 20)"><tspan x="0" y="0">11</tspan></text>
        </g>
      </g>
    </g>
  </g>
</svg>
