<svg xmlns="http://www.w3.org/2000/svg" xmlns:xlink="http://www.w3.org/1999/xlink" width="727" height="354" viewBox="0 0 727 354"><defs><style>.a{clip-path:url(#h);}.b{fill:#87c5bf;}.c{fill:#022d3d;}.d{fill:#dff8e8;}.e{font-size:18px;font-family:Poppins-Regular, Poppins;}.f{font-family:Poppins-Bold, Poppins;font-weight:700;}.g{filter:url(#e);}.h{filter:url(#c);}.i{filter:url(#a);}</style><filter id="a" x="-9" y="-6" width="745" height="372" filterUnits="userSpaceOnUse"><feOffset dy="3" input="SourceAlpha"/><feGaussianBlur stdDeviation="3" result="b"/><feFlood flood-opacity="0.161"/><feComposite operator="in" in2="b"/><feComposite in="SourceGraphic"/></filter><filter id="c" x="78" y="14" width="631" height="332" filterUnits="userSpaceOnUse"><feOffset dy="3" input="SourceAlpha"/><feGaussianBlur stdDeviation="3" result="d"/><feFlood flood-opacity="0.161"/><feComposite operator="in" in2="d"/><feComposite in="SourceGraphic"/></filter><filter id="e" x="19" y="42" width="641" height="266" filterUnits="userSpaceOnUse"><feOffset dy="3" input="SourceAlpha"/><feGaussianBlur stdDeviation="3" result="f"/><feFlood flood-opacity="0.161"/><feComposite operator="in" in2="f"/><feComposite in="SourceGraphic"/></filter><clipPath id="h"><rect width="727" height="354"/></clipPath></defs><g id="g" class="a"><g transform="translate(3060 11430)"><g class="i" transform="matrix(1, 0, 0, 1, -3060, -11430)"><rect class="b" width="727" height="354" rx="10"/></g><g class="h" transform="matrix(1, 0, 0, 1, -3060, -11430)"><rect class="c" width="613" height="314" rx="10" transform="translate(87 20)"/></g><g transform="translate(30 77)"><g class="g" transform="matrix(1, 0, 0, 1, -3090, -11507)"><rect class="d" width="623" height="248" rx="10" transform="translate(28 48)"/></g><text class="e" transform="translate(-3044 -11427)"><tspan x="2.916" y="19">Illuminé was designed to help our users achieve a greater sense </tspan><tspan x="23.598" y="51">of wisdom by creating a space where users can confidently </tspan><tspan x="1.863" y="83">unlock levels of deeper insight. We have observed that our </tspan><tspan class="f" y="83">users </tspan><tspan class="f" x="16.632" y="115">want to gain knowledge and understanding, but struggle to </tspan><tspan class="f" x="24.336" y="147">find the tools and motivation</tspan><tspan y="147" xml:space="preserve"> in order to remain consistent, </tspan><tspan x="0" y="179">which in turn affects their continuation to want to learn and train.</tspan></text></g></g></g></svg>