<svg xmlns="http://www.w3.org/2000/svg" xmlns:xlink="http://www.w3.org/1999/xlink" width="359" height="168" viewBox="0 0 359 168">
  <defs>
    <style>
      .cls-1 {
        clip-path: url(#clip-dellgaming-figma-to-code-iterations);
      }

      .cls-2 {
        fill: #558bf9;
      }

      .cls-3, .cls-4, .cls-5 {
        fill: #fff;
      }

      .cls-3 {
        font-size: 18px;
        font-family: Merriweather-Bold, Merriweather;
        font-weight: 700;
        text-decoration: underline;
      }

      .cls-4 {
        font-size: 14px;
        font-family: Poppins-Regular, Poppins;
      }

      .cls-6 {
        filter: url(#Path_310);
      }
    </style>
    <filter id="Path_310" x="-9" y="-6" width="377" height="186" filterUnits="userSpaceOnUse">
      <feOffset dy="3" input="SourceAlpha"/>
      <feGaussianBlur stdDeviation="3" result="blur"/>
      <feFlood flood-opacity="0.161"/>
      <feComposite operator="in" in2="blur"/>
      <feComposite in="SourceGraphic"/>
    </filter>
    <clipPath id="clip-dellgaming-figma-to-code-iterations">
      <rect width="359" height="168"/>
    </clipPath>
  </defs>
  <g id="dellgaming-figma-to-code-iterations" class="cls-1">
    <g id="Group_662" data-name="Group 662" transform="translate(-904 -5976)">
      <g class="cls-6" transform="matrix(1, 0, 0, 1, 904, 5976)">
        <path id="Path_310-2" data-name="Path 310" class="cls-2" d="M10,0H349a10,10,0,0,1,10,10V158a10,10,0,0,1-10,10H10A10,10,0,0,1,0,158V10A10,10,0,0,1,10,0Z"/>
      </g>
      <text id="Iterations_from_mid-fi_to_Code:" data-name="Iterations from mid-fi to Code:" class="cls-3" transform="translate(942 5996)"><tspan x="0" y="18">Iterations from mid-fi to Code:</tspan></text>
      <g id="Group_547" data-name="Group 547" transform="translate(910 6030)">
        <text id="_Rename_Build_your_own_pc_to_Build_your_own_bundle._CTA_s_Clean_Sleek_Layout" data-name="        Rename “Build your own pc” to “Build your 
        own bundle.
        CTA’s
        Clean &amp; Sleek Layout" class="cls-4"><tspan x="0" y="15" xml:space="preserve">        Rename “Build your own pc” to “Build your </tspan><tspan x="0" y="39" xml:space="preserve">        own bundle.</tspan><tspan x="0" y="63" xml:space="preserve">        CTA’s</tspan><tspan x="0" y="87" xml:space="preserve">        Clean &amp; Sleek Layout</tspan></text>
        <circle id="Ellipse_24" data-name="Ellipse 24" class="cls-5" cx="3" cy="3" r="3" transform="translate(15 7)"/>
        <circle id="Ellipse_33" data-name="Ellipse 33" class="cls-5" cx="3" cy="3" r="3" transform="translate(15 55)"/>
        <circle id="Ellipse_44" data-name="Ellipse 44" class="cls-5" cx="3" cy="3" r="3" transform="translate(15 79)"/>
      </g>
    </g>
  </g>
</svg>
