<svg xmlns="http://www.w3.org/2000/svg" xmlns:xlink="http://www.w3.org/1999/xlink" width="824" height="248" viewBox="0 0 824 248"><defs><style>.a{clip-path:url(#h);}.b{fill:#87c5bf;}.c,.g{font-size:20px;}.c,.d,.f,.g{font-family:Poppins-Regular, Poppins;}.c{text-decoration:underline;}.d{font-size:18px;}.e{fill:#022c3e;}.f,.g{fill:#fff;}.f{font-size:60px;}.h{filter:url(#e);}.i{filter:url(#c);}.j{filter:url(#a);}</style><filter id="a" x="7" y="2" width="514" height="242" filterUnits="userSpaceOnUse"><feOffset dy="3" input="SourceAlpha"/><feGaussianBlur stdDeviation="3" result="b"/><feFlood flood-opacity="0.161"/><feComposite operator="in" in2="b"/><feComposite in="SourceGraphic"/></filter><filter id="c" x="519" y="2" width="298" height="122" filterUnits="userSpaceOnUse"><feOffset dy="3" input="SourceAlpha"/><feGaussianBlur stdDeviation="3" result="d"/><feFlood flood-opacity="0.161"/><feComposite operator="in" in2="d"/><feComposite in="SourceGraphic"/></filter><filter id="e" x="519" y="122" width="298" height="122" filterUnits="userSpaceOnUse"><feOffset dy="3" input="SourceAlpha"/><feGaussianBlur stdDeviation="3" result="f"/><feFlood flood-opacity="0.161"/><feComposite operator="in" in2="f"/><feComposite in="SourceGraphic"/></filter><clipPath id="h"><rect width="824" height="248"/></clipPath></defs><g id="g" class="a"><g transform="translate(-168 -4632)"><g transform="translate(-40 -624)"><g class="j" transform="matrix(1, 0, 0, 1, 208, 5256)"><rect class="b" width="496" height="224" rx="10" transform="translate(16 8)"/></g><text class="c" transform="translate(256 5289)"><tspan x="0" y="21">Information we wanted to gain:</tspan></text><g transform="translate(256 5335)"><text class="d"><tspan x="0" y="19" xml:space="preserve">         What kind of learner users are.</tspan><tspan x="0" y="51" xml:space="preserve">         What type of learning style users preferred.</tspan><tspan x="0" y="83" xml:space="preserve">         How users seek knowledge.</tspan><tspan x="0" y="115" xml:space="preserve">         What wisdom means to users. </tspan></text><circle cx="4" cy="4" r="4" transform="translate(21 9)"/><circle cx="4" cy="4" r="4" transform="translate(21 41)"/><circle cx="4" cy="4" r="4" transform="translate(21 74)"/><circle cx="4" cy="4" r="4" transform="translate(21 105)"/></g></g><g class="i" transform="matrix(1, 0, 0, 1, 168, 4632)"><rect class="e" width="280" height="104" rx="10" transform="translate(528 8)"/></g><g transform="translate(17)"><text class="f" transform="translate(722 4713)"><tspan x="0" y="0">8</tspan></text><text class="g" transform="translate(788 4678)"><tspan x="0" y="21">1-1 Interviews</tspan></text></g><g class="h" transform="matrix(1, 0, 0, 1, 168, 4632)"><rect class="e" width="280" height="104" rx="10" transform="translate(528 128)"/></g><g transform="translate(13 3)"><text class="f" transform="translate(713 4830)"><tspan x="0" y="0">186</tspan></text><text class="g" transform="translate(823 4782)"><tspan x="15.04" y="21">Survey </tspan><tspan x="0" y="45">Response</tspan></text></g></g></g></svg>